<svg xmlns="http://www.w3.org/2000/svg" id="Layer_1" viewBox="0 0 717.67 369.21"><defs><style>.cls-1{fill:#00b39f}.cls-2{stroke-dasharray:8}.cls-2,.cls-3{stroke:#00b39f}.cls-2,.cls-3,.cls-4,.cls-5,.cls-6{stroke-miterlimit:10}.cls-2,.cls-4,.cls-6,.cls-7,.cls-8,.cls-9{fill:#fff}.cls-3{fill:none}.cls-10{letter-spacing:0}.cls-4{fill-rule:evenodd}.cls-4,.cls-5,.cls-6{stroke:#4278bd}.cls-11{letter-spacing:0}.cls-5{fill:#4278bd}.cls-8{font-size:20px}.cls-12,.cls-13,.cls-14,.cls-8,.cls-9{font-family:IBMPlexSans,&apos;IBM Plex Sans&apos;}.cls-14,.cls-9{font-size:14px}.cls-15{letter-spacing:-.02em}.cls-16,.cls-17{letter-spacing:-.01em}.cls-18,.cls-19,.cls-20{letter-spacing:-.02em}.cls-12{font-size:11px}.cls-21,.cls-22,.cls-23,.cls-24,.cls-25,.cls-26{letter-spacing:0}.cls-13{font-size:12px}.cls-27,.cls-28,.cls-29,.cls-30,.cls-31,.cls-32,.cls-33,.cls-34{letter-spacing:0}.cls-35{letter-spacing:.01em}.cls-36{letter-spacing:0}</style></defs><rect width="674.89" height="368.21" x="10.6" y=".5" class="cls-2" rx="12" ry="12"/><rect width="310.23" height="384.43" x="327.02" y="-3.69" class="cls-6" rx="12" ry="12" transform="translate(293.62 670.66) rotate(-90)"/><rect width="200.61" height="184.14" x="302.97" y="85.96" class="cls-5" rx="12" ry="12" transform="translate(225.24 581.3) rotate(-90)"/><text class="cls-9" transform="translate(370.4 98.52)"><tspan x="0" y="0">API se</tspan><tspan x="40.86" y="0" class="cls-36">r</tspan><tspan x="46.14" y="0" class="cls-31">v</tspan><tspan x="52.92" y="0">er</tspan></text><text class="cls-8" transform="translate(516.73 134.68)"><tspan x="0" y="0" class="cls-16">W</tspan><tspan x="17.52" y="0">or</tspan><tspan x="36.06" y="0" class="cls-19">k</tspan><tspan x="46.26" y="0">er 2</tspan></text><rect width="156" height="38.04" x="326.13" y="173.25" class="cls-7" rx="12" ry="12" transform="translate(211.86 596.4) rotate(-90)"/><text class="cls-13" transform="translate(400.75 231.06) rotate(-90)"><tspan x="0" y="0">Authorization</tspan></text><rect width="156" height="38.04" x="384.91" y="172.83" class="cls-7" rx="12" ry="12" transform="translate(271.06 654.76) rotate(-90)"/><text class="cls-13" transform="translate(459.55 242.32) rotate(-90)"><tspan x="0" y="0">Admi</tspan><tspan x="28.13" y="0" class="cls-24">s</tspan><tspan x="33.9" y="0">sion Cont</tspan><tspan x="84.31" y="0" class="cls-25">r</tspan><tspan x="88.65" y="0">ol</tspan></text><rect width="156" height="38.04" x="266.13" y="173.98" class="cls-7" rx="12" ry="12" transform="translate(151.13 537.13) rotate(-90)"/><text class="cls-13" transform="translate(341.75 231.52) rotate(-90)"><tspan x="0" y="0">Authentication</tspan></text><path d="M555,167.77v36h.98c2.06,5,14.31,6.06,29.11,6.06s27.04-1.06,29.11-6.06h-.19v-36h-59Z" class="cls-4"/><ellipse cx="585.09" cy="167.35" class="cls-6" rx="29.42" ry="7.08"/><path d="M575,177.77v36h.98c2.06,5,14.31,6.06,29.11,6.06s27.04-1.06,29.11-6.06h-.19v-36h-59Z" class="cls-4"/><ellipse cx="605.09" cy="177.35" class="cls-6" rx="29.42" ry="7.08"/><path d="M596,189.77v36h.98c2.06,5,14.31,6.06,29.11,6.06s27.04-1.06,29.11-6.06h-.19v-36h-59Z" class="cls-4"/><ellipse cx="626.09" cy="189.35" class="cls-6" rx="29.42" ry="7.08"/><text class="cls-14" transform="translate(611.79 216.04)"><tspan x="0" y="0">e</tspan><tspan x="7.69" y="0" class="cls-27">t</tspan><tspan x="12.54" y="0" class="cls-22">c</tspan><tspan x="19.5" y="0">d</tspan></text><text class="cls-14" transform="translate(460.3 59.81)"><tspan x="0" y="0">Ma</tspan><tspan x="18.84" y="0" class="cls-33">s</tspan><tspan x="25.56" y="0" class="cls-27">t</tspan><tspan x="30.42" y="0">er</tspan></text><rect width="126.9" height="219.62" x="75.24" y="155.59" class="cls-6" rx="12" ry="12" transform="translate(-126.71 404.1) rotate(-90)"/><text class="cls-14" transform="translate(103.72 218.29)"><tspan x="0" y="0" class="cls-17">W</tspan><tspan x="12.26" y="0">or</tspan><tspan x="25.24" y="0" class="cls-20">k</tspan><tspan x="32.38" y="0">er node</tspan></text><path d="M128.8,122.51c5.39,0,9.67,4.28,9.67,9.67s-4.28,9.67-9.67,9.67-9.67-4.28-9.67-9.67,4.28-9.67,9.67-9.67ZM128.8,119.75c-6.9,0-12.43,5.52-12.43,12.43s5.52,12.43,12.43,12.43,12.43-5.52,12.43-12.43-5.52-12.43-12.43-12.43Z"/><path d="M128.8,113.67c-12.15,0-22.09,9.94-22.09,22.09s9.94,22.09,22.09,22.09,22.09-9.94,22.09-22.09-9.94-22.09-22.09-22.09ZM138.88,147.23h-20.16c-1.66,0-3.04.69-3.87,1.8-3.31-3.45-5.39-8.15-5.39-13.26,0-10.63,8.7-19.33,19.33-19.33s19.33,8.7,19.33,19.33c0,5.11-2.07,9.8-5.39,13.26-.83-1.1-2.35-1.8-3.87-1.8Z"/><text class="cls-14" transform="translate(320.32 16.74)"><tspan x="0" y="0">Clu</tspan><tspan x="20.45" y="0" class="cls-33">s</tspan><tspan x="27.17" y="0" class="cls-26">t</tspan><tspan x="32.03" y="0">er</tspan></text><line x1="155.5" x2="318.5" y1="135.77" y2="135.77" class="cls-3"/><polygon points="316.5 140.75 325.14 135.77 316.5 130.78 316.5 140.75" class="cls-1"/><line x1="365.5" x2="377.5" y1="135.77" y2="135.77" class="cls-3"/><polygon points="376.5 140.75 385.14 135.77 376.5 130.78 376.5 140.75" class="cls-1"/><line x1="423.5" x2="435.5" y1="135.77" y2="135.77" class="cls-3"/><polygon points="434.5 140.75 443.14 135.77 434.5 130.78 434.5 140.75" class="cls-1"/><line x1="225.5" x2="317.5" y1="246.77" y2="246.77" class="cls-3"/><polygon points="316.5 251.75 325.14 246.77 316.5 241.78 316.5 251.75" class="cls-1"/><line x1="363.5" x2="375.5" y1="246.77" y2="246.77" class="cls-3"/><polygon points="374.5 251.75 383.14 246.77 374.5 241.78 374.5 251.75" class="cls-1"/><line x1="423.5" x2="435.5" y1="246.77" y2="246.77" class="cls-3"/><polygon points="434.5 251.75 443.14 246.77 434.5 241.78 434.5 251.75" class="cls-1"/><line x1="482.5" x2="548.5" y1="192.77" y2="192.77" class="cls-3"/><polygon points="547.5 197.75 556.14 192.77 547.5 187.78 547.5 197.75" class="cls-1"/><text class="cls-12" transform="translate(93.17 171.35)"><tspan x="0" y="0">Human user</tspan></text><line x1="312.5" x2="242.5" y1="309.77" y2="309.77" class="cls-3"/><polygon points="244.5 304.78 235.87 309.77 244.5 314.75 244.5 304.78" class="cls-1"/><rect width="33.98" height="182.51" x="387.09" y="220.61" class="cls-6" rx="12" ry="12" transform="translate(92.22 715.95) rotate(-90)"/><line x1="404" x2="404" y1="278.27" y2="287.27" class="cls-3"/><polygon points="398.82 286.27 403.81 294.9 408.8 286.27 398.82 286.27" class="cls-1"/><text class="cls-14" transform="translate(343.77 316.13)"><tspan x="0" y="0" class="cls-20">k</tspan><tspan x="7.14" y="0">onnectivity se</tspan><tspan x="94.12" y="0" class="cls-35">r</tspan><tspan x="99.4" y="0" class="cls-32">v</tspan><tspan x="106.17" y="0">er</tspan></text><rect width="196.54" height="30.7" x="39.05" y="289.63" class="cls-6" rx="12" ry="12"/><text class="cls-14" transform="translate(79.05 308.08)"><tspan x="0" y="0" class="cls-18">k</tspan><tspan x="7.14" y="0">onnectivity client</tspan></text><line x1="186" x2="186" y1="289.27" y2="267.27" class="cls-3"/><polygon points="191.06 268.27 186.07 259.63 181.09 268.27 191.06 268.27" class="cls-1"/><line x1="74" x2="74" y1="288.27" y2="266.27" class="cls-3"/><polygon points="79.06 267.27 74.07 258.63 69.09 267.27 79.06 267.27" class="cls-1"/><rect width="78" height="24" x="40.07" y="234.77" class="cls-6"/><text class="cls-14" transform="translate(55.37 250.73)"><tspan x="0" y="0" class="cls-29">k</tspan><tspan x="7.24" y="0">ubelet</tspan></text><rect width="78" height="24" x="147.07" y="234.77" class="cls-6"/><text class="cls-14" transform="translate(159.77 250.73)"><tspan x="0" y="0">App pod</tspan></text><text class="cls-13" transform="translate(355.19 241.3) rotate(-90)"><tspan x="0" y="0">( TLS </tspan><tspan x="29.53" y="0" class="cls-24">c</tspan><tspan x="35.5" y="0">e</tspan><tspan x="42.08" y="0" class="cls-34">r</tspan><tspan x="46.54" y="0">tifica</tspan><tspan x="72.99" y="0" class="cls-28">t</tspan><tspan x="77.16" y="0">es )</tspan></text><text class="cls-13" transform="translate(415.19 210.84) rotate(-90)"><tspan x="0" y="0">(R</tspan><tspan x="11.7" y="0" class="cls-30">B</tspan><tspan x="19.42" y="0" class="cls-15">A</tspan><tspan x="26.93" y="0" class="cls-11">C)</tspan></text><text class="cls-13" transform="translate(473.98 248.49) rotate(-90)"><tspan x="0" y="0">(admi</tspan><tspan x="30.86" y="0" class="cls-21">s</tspan><tspan x="36.64" y="0" class="cls-10">sion </tspan><tspan x="61.85" y="0" class="cls-21">c</tspan><tspan x="67.81" y="0" class="cls-10">ont</tspan><tspan x="85.56" y="0" class="cls-23">r</tspan><tspan x="89.9" y="0" class="cls-10">o</tspan><tspan x="96.62" y="0" class="cls-23">l</tspan><tspan x="99.83" y="0" class="cls-10">ler)</tspan></text></svg>