<svg xmlns="http://www.w3.org/2000/svg" id="Layer_1" viewBox="0 0 927.67 319.11"><defs><style>.cls-1{fill:#4077b3}.cls-2{fill:none;stroke:#394144}.cls-2,.cls-3,.cls-4,.cls-5{stroke-miterlimit:10}.cls-6{font-family:IBMPlexSans-Bold,&apos;IBM Plex Sans&apos;;font-weight:700}.cls-6,.cls-7{font-size:18px}.cls-3{fill:#5a6872;stroke:#48545b}.cls-8{fill:#2b3f49}.cls-9{fill:#394144}.cls-4{stroke:#4077b3}.cls-10,.cls-4,.cls-5{fill:#fff}.cls-10,.cls-11{font-size:20px}.cls-10,.cls-11,.cls-7{font-family:IBMPlexSans,&apos;IBM Plex Sans&apos;}.cls-5{stroke:#17a097;stroke-dasharray:8;stroke-width:2px}.cls-12,.cls-13{letter-spacing:-.06em}.cls-14{letter-spacing:-.02em}.cls-15{letter-spacing:-.01em}.cls-16,.cls-17{letter-spacing:-.02em}.cls-18,.cls-19,.cls-20,.cls-21,.cls-22,.cls-23{letter-spacing:0}.cls-24{letter-spacing:-.01em}.cls-25,.cls-26,.cls-27{letter-spacing:0}.cls-28{letter-spacing:.01em}.cls-29{letter-spacing:0}</style></defs><rect width="308.75" height="268.45" x="617.91" y="49.66" class="cls-5" rx="12" ry="12"/><path d="M551.51,151.91c5.42,0,9.72,4.3,9.72,9.72s-4.3,9.72-9.72,9.72-9.72-4.3-9.72-9.72,4.3-9.72,9.72-9.72ZM551.51,149.13c-6.94,0-12.5,5.55-12.5,12.5s5.55,12.5,12.5,12.5,12.5-5.55,12.5-12.5-5.55-12.5-12.5-12.5Z" class="cls-8"/><path d="M551.51,143.02c-12.22,0-22.22,10-22.22,22.22s10,22.22,22.22,22.22,22.22-10,22.22-22.22-10-22.22-22.22-22.22ZM561.65,176.76h-20.27c-1.67,0-3.06.69-3.89,1.81-3.33-3.47-5.42-8.19-5.42-13.33,0-10.69,8.75-19.44,19.44-19.44s19.44,8.75,19.44,19.44c0,5.14-2.08,9.86-5.42,13.33-.83-1.11-2.36-1.81-3.89-1.81Z" class="cls-8"/><text class="cls-11" transform="translate(739.1 74.42)"><tspan x="0" y="0">Clu</tspan><tspan x="29.22" y="0" class="cls-27">s</tspan><tspan x="38.82" y="0" class="cls-22">t</tspan><tspan x="45.76" y="0">er</tspan></text><rect width="138.59" height="219.52" x="627.83" y="89.16" class="cls-1" rx="12" ry="12"/><text class="cls-10" transform="translate(639.9 112.86)"><tspan x="0" y="0" class="cls-15">W</tspan><tspan x="17.52" y="0">or</tspan><tspan x="36.06" y="0" class="cls-17">k</tspan><tspan x="46.26" y="0">er node</tspan></text><text class="cls-7" transform="translate(520.91 206.13)"><tspan x="0" y="0" class="cls-12">T</tspan><tspan x="9.13" y="0">eam A</tspan></text><rect width="138.59" height="210.44" x="778.63" y="89.16" class="cls-1" rx="12" ry="12"/><text class="cls-10" transform="translate(790.71 112.86)"><tspan x="0" y="0" class="cls-15">W</tspan><tspan x="17.52" y="0">or</tspan><tspan x="36.06" y="0" class="cls-17">k</tspan><tspan x="46.26" y="0">er node</tspan></text><rect width="126.13" height="78" x="633.94" y="126.42" class="cls-4" rx="12" ry="12"/><text class="cls-11" transform="translate(663.8 145.64)"><tspan x="0" y="0" class="cls-13">T</tspan><tspan x="10.14" y="0">eam A</tspan></text><rect width="63.18" height="31.19" x="659.31" y="153.8" class="cls-3" rx="12" ry="12"/><rect width="63.18" height="31.19" x="668.96" y="161.85" class="cls-3" rx="12" ry="12"/><rect width="63.18" height="31.19" x="682.31" y="168.98" class="cls-3" rx="12" ry="12"/><text class="cls-10" transform="translate(696.64 191.67)"><tspan x="0" y="0" class="cls-14">P</tspan><tspan x="11.72" y="0">od</tspan></text><line x1="582.26" x2="648.26" y1="166.05" y2="166.05" class="cls-2"/><polygon points="646.26 171.04 654.89 166.05 646.26 161.06 646.26 171.04" class="cls-9"/><path d="M552.01,247.54c5.42,0,9.72,4.3,9.72,9.72s-4.3,9.72-9.72,9.72-9.72-4.3-9.72-9.72,4.3-9.72,9.72-9.72ZM552.01,244.76c-6.94,0-12.5,5.55-12.5,12.5s5.55,12.5,12.5,12.5,12.5-5.55,12.5-12.5-5.55-12.5-12.5-12.5Z" class="cls-8"/><path d="M552.01,238.65c-12.22,0-22.22,10-22.22,22.22s10,22.22,22.22,22.22,22.22-10,22.22-22.22-10-22.22-22.22-22.22ZM562.15,272.39h-20.27c-1.67,0-3.06.69-3.89,1.81-3.33-3.47-5.42-8.19-5.42-13.33,0-10.69,8.75-19.44,19.44-19.44s19.44,8.75,19.44,19.44c0,5.14-2.08,9.86-5.42,13.33-.83-1.11-2.36-1.81-3.89-1.81Z" class="cls-8"/><text class="cls-7" transform="translate(517.8 303.47)"><tspan x="0" y="0" class="cls-12">T</tspan><tspan x="9.13" y="0">eam B</tspan></text><rect width="126.13" height="78" x="633.72" y="221.65" class="cls-4" rx="12" ry="12"/><text class="cls-11" transform="translate(663.46 240.87)"><tspan x="0" y="0" class="cls-13">T</tspan><tspan x="10.14" y="0">eam B</tspan></text><rect width="63.18" height="31.19" x="659.09" y="249.03" class="cls-3" rx="12" ry="12"/><rect width="63.18" height="31.19" x="668.74" y="257.08" class="cls-3" rx="12" ry="12"/><rect width="63.18" height="31.19" x="682.09" y="264.2" class="cls-3" rx="12" ry="12"/><text class="cls-10" transform="translate(696.42 286.89)"><tspan x="0" y="0" class="cls-14">P</tspan><tspan x="11.72" y="0">od</tspan></text><line x1="582.26" x2="648.26" y1="264.05" y2="264.05" class="cls-2"/><polygon points="646.26 269.04 654.89 264.05 646.26 259.06 646.26 269.04" class="cls-9"/><rect width="126.13" height="78" x="785.04" y="168.98" class="cls-4" rx="12" ry="12"/><text class="cls-11" transform="translate(791.4 190.44)"><tspan x="0" y="0" class="cls-24">k</tspan><tspan x="10.34" y="0">ub</tspan><tspan x="33.3" y="0" class="cls-28">e</tspan><tspan x="44.48" y="0">-</tspan><tspan x="52.46" y="0" class="cls-16">s</tspan><tspan x="61.84" y="0" class="cls-22">y</tspan><tspan x="71.74" y="0" class="cls-27">s</tspan><tspan x="81.34" y="0" class="cls-22">t</tspan><tspan x="88.28" y="0">em</tspan></text><rect width="77.7" height="31.19" x="809.51" y="206.05" class="cls-3" rx="12" ry="12"/><text class="cls-10" transform="translate(814.18 227.9)"><tspan x="0" y="0">Ing</tspan><tspan x="29.92" y="0" class="cls-20">r</tspan><tspan x="37.16" y="0">e</tspan><tspan x="48.14" y="0" class="cls-18">s</tspan><tspan x="57.76" y="0">s</tspan></text><line x1="772.26" x2="802.26" y1="228.05" y2="228.05" class="cls-2"/><polygon points="801.26 233.04 809.89 228.05 801.26 223.06 801.26 233.04" class="cls-9"/><line x1="772.76" x2="772.76" y1="228.55" y2="283.55" class="cls-2"/><line x1="745.27" x2="772.76" y1="283.39" y2="283.55" class="cls-2"/><line x1="745.27" x2="772.76" y1="186.39" y2="186.55" class="cls-2"/><line x1="772.76" x2="772.76" y1="186.55" y2="218.55" class="cls-2"/><line x1="772.26" x2="802.26" y1="218.05" y2="218.05" class="cls-2"/><polygon points="801.26 223.04 809.89 218.05 801.26 213.06 801.26 223.04" class="cls-9"/><text class="cls-6" transform="translate(655.47 15.28)"><tspan x="0" y="0">Mu</tspan><tspan x="25.47" y="0" class="cls-19">l</tspan><tspan x="30.83" y="0">ti-</tspan><tspan x="50.13" y="0" class="cls-23">t</tspan><tspan x="56.95" y="0">enant clu</tspan><tspan x="135.39" y="0" class="cls-25">s</tspan><tspan x="144.32" y="0" class="cls-21">t</tspan><tspan x="151.14" y="0">er setup</tspan></text><rect width="308.75" height="268.45" x="152.91" y="48.66" class="cls-5" rx="12" ry="12"/><path d="M86.51,150.91c5.42,0,9.72,4.3,9.72,9.72s-4.3,9.72-9.72,9.72-9.72-4.3-9.72-9.72,4.3-9.72,9.72-9.72ZM86.51,148.13c-6.94,0-12.5,5.55-12.5,12.5s5.55,12.5,12.5,12.5,12.5-5.55,12.5-12.5-5.55-12.5-12.5-12.5Z" class="cls-8"/><path d="M86.51,142.02c-12.22,0-22.22,10-22.22,22.22s10,22.22,22.22,22.22,22.22-10,22.22-22.22-10-22.22-22.22-22.22ZM96.65,175.76h-20.27c-1.67,0-3.06.69-3.89,1.81-3.33-3.47-5.42-8.19-5.42-13.33,0-10.69,8.75-19.44,19.44-19.44s19.44,8.75,19.44,19.44c0,5.14-2.08,9.86-5.42,13.33-.83-1.11-2.36-1.81-3.89-1.81Z" class="cls-8"/><text class="cls-11" transform="translate(274.1 73.42)"><tspan x="0" y="0">Clu</tspan><tspan x="29.22" y="0" class="cls-27">s</tspan><tspan x="38.82" y="0" class="cls-22">t</tspan><tspan x="45.76" y="0">er</tspan></text><rect width="138.59" height="210.44" x="162.83" y="88.16" class="cls-1" rx="12" ry="12"/><text class="cls-10" transform="translate(174.9 111.86)"><tspan x="0" y="0" class="cls-15">W</tspan><tspan x="17.52" y="0">or</tspan><tspan x="36.06" y="0" class="cls-17">k</tspan><tspan x="46.26" y="0">er node</tspan></text><text class="cls-7" transform="translate(55.91 205.13)"><tspan x="0" y="0" class="cls-12">T</tspan><tspan x="9.13" y="0">eam A</tspan></text><rect width="138.59" height="210.44" x="313.63" y="88.16" class="cls-1" rx="12" ry="12"/><text class="cls-10" transform="translate(325.71 111.86)"><tspan x="0" y="0" class="cls-15">W</tspan><tspan x="17.52" y="0">or</tspan><tspan x="36.06" y="0" class="cls-17">k</tspan><tspan x="46.26" y="0">er node</tspan></text><rect width="126.13" height="78" x="168.94" y="125.42" class="cls-4" rx="12" ry="12"/><text class="cls-11" transform="translate(198.8 144.64)"><tspan x="0" y="0" class="cls-13">T</tspan><tspan x="10.14" y="0">eam A</tspan></text><rect width="63.18" height="31.19" x="194.31" y="152.8" class="cls-3" rx="12" ry="12"/><rect width="63.18" height="31.19" x="203.96" y="160.85" class="cls-3" rx="12" ry="12"/><rect width="63.18" height="31.19" x="217.31" y="167.98" class="cls-3" rx="12" ry="12"/><text class="cls-10" transform="translate(231.64 190.67)"><tspan x="0" y="0" class="cls-14">P</tspan><tspan x="11.72" y="0">od</tspan></text><line x1="117.26" x2="183.26" y1="165.05" y2="165.05" class="cls-2"/><polygon points="181.26 170.04 189.89 165.05 181.26 160.06 181.26 170.04" class="cls-9"/><rect width="126.13" height="78" x="320.04" y="127.98" class="cls-4" rx="12" ry="12"/><text class="cls-11" transform="translate(326.4 149.44)"><tspan x="0" y="0" class="cls-24">k</tspan><tspan x="10.34" y="0">ub</tspan><tspan x="33.3" y="0" class="cls-28">e</tspan><tspan x="44.48" y="0">-</tspan><tspan x="52.46" y="0" class="cls-16">s</tspan><tspan x="61.84" y="0" class="cls-22">y</tspan><tspan x="71.74" y="0" class="cls-27">s</tspan><tspan x="81.34" y="0" class="cls-22">t</tspan><tspan x="88.28" y="0">em</tspan></text><rect width="77.7" height="31.19" x="344.51" y="165.98" class="cls-3" rx="12" ry="12"/><text class="cls-10" transform="translate(349.18 186.9)"><tspan x="0" y="0">Ing</tspan><tspan x="29.92" y="0" class="cls-20">r</tspan><tspan x="37.16" y="0">e</tspan><tspan x="48.14" y="0" class="cls-18">s</tspan><tspan x="57.76" y="0">s</tspan></text><line x1="283.26" x2="333.26" y1="186.05" y2="186.05" class="cls-2"/><polygon points="331.26 191.04 339.89 186.05 331.26 181.06 331.26 191.04" class="cls-9"/><text class="cls-6" transform="translate(198.41 15.28)"><tspan x="0" y="0">Singl</tspan><tspan x="42.5" y="0" class="cls-29">e</tspan><tspan x="52.79" y="0">-</tspan><tspan x="60.05" y="0" class="cls-23">t</tspan><tspan x="66.87" y="0">enant clu</tspan><tspan x="145.31" y="0" class="cls-26">s</tspan><tspan x="154.24" y="0" class="cls-21">t</tspan><tspan x="161.06" y="0">er setup</tspan></text></svg>