<svg xmlns="http://www.w3.org/2000/svg" xmlns:xlink="http://www.w3.org/1999/xlink" viewBox="0 0 1064 415"><defs><style>.cls-1,.cls-2,.cls-3,.cls-4,.cls-5,.cls-6{fill:none}.cls-7,.cls-8,.cls-9{font-family:IBMPlexSans-Italic,&apos;IBM Plex Sans&apos;;font-style:italic}.cls-10{fill:#687985}.cls-11{fill:#eec11b}.cls-12{font-size:24px}.cls-12,.cls-13{font-family:IBMPlexSans-Bold,&apos;IBM Plex Sans&apos;;font-weight:700}.cls-14{fill:#f47737}.cls-15{fill-rule:evenodd}.cls-13,.cls-15,.cls-16{fill:#10212d}.cls-2{stroke:#00b39f;stroke-dasharray:8}.cls-17,.cls-18,.cls-19,.cls-2,.cls-3,.cls-4,.cls-5,.cls-6{stroke-miterlimit:10}.cls-18,.cls-2,.cls-4,.cls-6{stroke-width:2px}.cls-20,.cls-21,.cls-22,.cls-8{font-size:18px}.cls-23{fill:#8c9ba5}.cls-24{fill:#e61f33}.cls-25{clip-path:url(#clippath-1)}.cls-26{clip-path:url(#clippath-3)}.cls-27{clip-path:url(#clippath-2)}.cls-3{stroke:#10212d;stroke-width:9px}.cls-28{font-size:18.5px}.cls-13,.cls-29,.cls-30,.cls-31{font-size:19px}.cls-17{fill:#2d3f49;stroke:#2d3f49}.cls-32{letter-spacing:0}.cls-33{fill:#5cc4b9}.cls-18,.cls-19,.cls-21,.cls-30,.cls-34,.cls-35,.cls-36{fill:#fff}.cls-18{stroke:#000}.cls-19{stroke:#999}.cls-4{stroke:#87c3eb}.cls-21,.cls-22,.cls-30,.cls-31,.cls-35,.cls-37,.cls-38,.cls-39,.cls-40,.cls-41,.cls-42,.cls-43,.cls-44{font-family:IBMPlexSans,&apos;IBM Plex Sans&apos;}.cls-45{fill:#6aa4d9}.cls-46,.cls-47{letter-spacing:0}.cls-48{fill:#42535c}.cls-49{fill:#5b6972}.cls-36,.cls-38,.cls-9{font-size:20px}.cls-5{stroke:#2d3f55;stroke-width:3px}.cls-35,.cls-40{font-size:23px}.cls-36{font-family:IBMPlexSans-SemiBold,&apos;IBM Plex Sans&apos;;font-weight:600}.cls-6{stroke:#394b54}.cls-50,.cls-51,.cls-52,.cls-53{letter-spacing:-.02em}.cls-54{letter-spacing:-.01em}.cls-55,.cls-56{letter-spacing:-.02em}.cls-57{letter-spacing:-.01em}.cls-58{letter-spacing:-.03em}.cls-59{letter-spacing:0}.cls-39{font-size:17px}.cls-41{font-size:22px}.cls-60,.cls-61,.cls-62,.cls-63{letter-spacing:0}.cls-42,.cls-43,.cls-44{font-size:16.58px}.cls-64,.cls-65,.cls-66,.cls-67,.cls-68,.cls-69,.cls-70,.cls-71,.cls-72,.cls-73,.cls-74,.cls-75,.cls-76,.cls-77,.cls-78,.cls-79{letter-spacing:0}.cls-80{fill:#4278bd}.cls-81{fill:#394b54}.cls-82{fill:#6a2000}.cls-83{letter-spacing:.02em}.cls-84{clip-path:url(#clippath)}.cls-85,.cls-86,.cls-87{letter-spacing:0}</style><clipPath id="clippath"><rect width="116" height="59.72" x="930" y="291" class="cls-1"/></clipPath><clipPath id="clippath-1"><rect width="116" height="59.71" x="930" y="291" class="cls-1"/></clipPath><clipPath id="clippath-2"><rect width="90" height="110" x="831" y="97" class="cls-1"/></clipPath><clipPath id="clippath-3"><rect width="90" height="110" x="831" y="97" class="cls-1"/></clipPath></defs><g id="Layer_1"><line x1="767.35" x2="911" y1="328" y2="328" class="cls-6"/><polygon points="770.27 337.97 753 328 770.27 318.03 770.27 337.97" class="cls-81"/><line x1="492.65" x2="323" y1="328" y2="328" class="cls-6"/><polygon points="489.73 318.03 507 328 489.73 337.97 489.73 318.03" class="cls-81"/><rect width="149" height="175" x="483.5" y="64.5" class="cls-19" rx="12" ry="12"/><rect width="472" height="412" x=".5" y="1.5" class="cls-17" rx="12" ry="12"/><rect width="428" height="349" x="22" y="42" class="cls-34" rx="12" ry="12"/><rect width="253" height="412" x="809.5" y="1.5" class="cls-5" rx="12" ry="12"/><line x1="915.65" x2="764" y1="328" y2="328" class="cls-6"/><polygon points="912.73 318.03 930 328 912.73 337.97 912.73 318.03" class="cls-81"/><g id="Router"><g class="cls-84"><polygon points="961.45 315.82 931.39 348.89 1015.94 348.89 1046 315.82 961.45 315.82" class="cls-23"/><polygon points="961.45 291 931.39 324.07 1015.94 324.07 1046 291 961.45 291" class="cls-23"/><polygon points="1046 291 1015.94 324.07 1015.94 348.89 1046 315.82 1046 291" class="cls-48"/><g class="cls-25"><path d="M1012.45,350.72h-78.79c-2.01,0-3.66-2.34-3.66-5.19v-17.07c0-2.86,1.65-5.19,3.66-5.19h78.79c2.01,0,3.66,2.34,3.66,5.19v17.07c0,2.86-1.65,5.19-3.66,5.19" class="cls-49"/><path d="M1007.74,341.13h-40.25c-1.72,0-3.13-2-3.13-4.44s1.41-4.44,3.13-4.44h40.25c1.72,0,3.13,2,3.13,4.44s-1.41,4.44-3.13,4.44" class="cls-16"/><path d="M941.08,336.69c0,2.9-1.66,5.25-3.7,5.25s-3.7-2.35-3.7-5.25,1.66-5.25,3.7-5.25,3.7,2.35,3.7,5.25" class="cls-16"/><path d="M960.5,336.69c0,2.9-1.66,5.25-3.7,5.25s-3.7-2.35-3.7-5.25,1.66-5.25,3.7-5.25,3.7,2.35,3.7,5.25" class="cls-16"/><path d="M950.79,336.69c0,2.9-1.66,5.25-3.7,5.25s-3.7-2.35-3.7-5.25,1.66-5.25,3.7-5.25,3.7,2.35,3.7,5.25" class="cls-16"/></g></g></g><rect width="161" height="175" x="642.5" y="64.5" class="cls-19" rx="12" ry="12"/><g id="Service"><g class="cls-27"><g class="cls-26"><path d="M921,176.1h-90v20.97s.08.02.23.06c-.15.3-.23.6-.23.9,0,4.95,20.15,8.96,45,8.96s45-4.01,45-8.96c0-.31-.08-.61-.23-.91.08-.02.15-.03.23-.05v-20.97Z" class="cls-45"/><path d="M921,176.1c0,4.95-20.15,8.96-45,8.96s-45-4.01-45-8.96,20.15-8.96,45-8.96,45,4.01,45,8.96" class="cls-80"/><path d="M921,141.03h-90v20.97s.08.02.23.06c-.15.3-.23.6-.23.9,0,4.95,20.15,8.96,45,8.96s45-4.01,45-8.96c0-.31-.08-.61-.23-.91.08-.02.15-.03.23-.05v-20.97Z" class="cls-45"/><path d="M921,141.03c0,4.95-20.15,8.96-45,8.96s-45-4.01-45-8.96,20.15-8.96,45-8.96,45,4.01,45,8.96" class="cls-80"/><path d="M921,105.96h-90v20.97s.08.02.23.06c-.15.3-.23.6-.23.9,0,4.95,20.15,8.96,45,8.96s45-4.01,45-8.96c0-.31-.08-.61-.23-.91.08-.02.15-.03.23-.05v-20.97Z" class="cls-45"/><path d="M921,105.96c0,4.95-20.15,8.96-45,8.96s-45-4.01-45-8.96,20.15-8.96,45-8.96,45,4.01,45,8.96" class="cls-80"/></g></g></g><polyline points="1035.96 101.29 1042 99 1042 199.57 1035.96 203" class="cls-15"/><polyline points="1039.87 101.36 1041.76 99 958.83 99 956 101.36" class="cls-15"/><rect width="79.96" height="101.64" x="956" y="101.36" class="cls-48"/><rect width="4.96" height="100" x="986" y="102" class="cls-24"/><rect width="4.96" height="100" x="997" y="102" class="cls-16"/><line x1="952.53" x2="894.09" y1="281.21" y2="214.64" class="cls-6"/><polygon points="958.1 272.44 962 292 943.11 285.6 958.1 272.44" class="cls-81"/><line x1="896.53" x2="959.97" y1="217.73" y2="289.13" class="cls-6"/><polygon points="891.02 226.53 887 207 905.93 213.29 891.02 226.53" class="cls-81"/><line x1="1000" x2="1000" y1="277.15" y2="209.91" class="cls-6"/><polygon points="1009.97 274.23 1000 291.5 990.03 274.23 1009.97 274.23" class="cls-81"/><line x1="1000" x2="1000" y1="216.35" y2="286.06" class="cls-6"/><polygon points="990.03 219.27 1000 202 1009.97 219.27 990.03 219.27" class="cls-81"/><ellipse cx="1035.5" cy="283.69" class="cls-18" rx="13.99" ry="14.01" transform="translate(103.02 815.87) rotate(-45.03)"/><rect width="246" height="108" x="507" y="274" class="cls-33" rx="12" ry="12"/><path d="M661.89,314.84c-1.65,0-3.27.16-4.84.48-6.36-8.13-16-13.32-26.8-13.32-12.58,0-23.6,7.05-29.68,17.59-1.62-.33-3.3-.5-5.01-.5-14.67,0-26.57,12.52-26.57,27.95s10.76,26.72,24.44,27.86l68.3.09h.15c14.97,0,27.11-13.47,27.11-30.08s-12.14-30.08-27.11-30.08Z" class="cls-3"/><rect width="170" height="170" x="250" y="104" class="cls-80" rx="12" ry="12"/><rect width="139" height="126.29" x="266" y="138" class="cls-34" rx="12" ry="12"/><rect width="113" height="82" x="279" y="170" class="cls-4" rx="12" ry="12"/><rect width="82" height="38" x="293" y="204" class="cls-10" rx="12" ry="12"/><line x1="318.35" x2="477" y1="328" y2="328" class="cls-6"/><polygon points="321.27 337.97 304 328 321.27 318.03 321.27 337.97" class="cls-81"/><ellipse cx="520.91" cy="273.02" class="cls-18" rx="14.01" ry="13.99" transform="translate(-40.62 447.86) rotate(-44.95)"/><rect width="395" height="224" x="40" y="88" class="cls-2" rx="12" ry="12"/><rect width="170" height="170" x="58" y="103.99" class="cls-80" rx="12" ry="12" transform="translate(.6 -.45) rotate(.18)"/><rect width="139" height="126.29" x="73.96" y="137.99" class="cls-34" rx="12" ry="12" transform="translate(.64 -.46) rotate(.18)"/><rect width="113" height="82" x="86.93" y="169.99" class="cls-4" rx="12" ry="12" transform="translate(.67 -.45) rotate(.18)"/><rect width="82" height="38" x="100.89" y="203.99" class="cls-10" rx="12" ry="12" transform="translate(.71 -.45) rotate(.18)"/><ellipse cx="238" cy="327.5" class="cls-33" rx="66.5" ry="36"/><line x1="264.04" x2="294.2" y1="281.85" y2="244.69" class="cls-6"/><polygon points="273.63 285.87 255 293 258.14 273.31 273.63 285.87" class="cls-81"/><line x1="288.96" x2="257.61" y1="251.15" y2="289.78" class="cls-6"/><polygon points="279.37 247.13 298 240 294.86 259.69 279.37 247.13" class="cls-81"/><line x1="212.06" x2="181.8" y1="281.77" y2="243.77" class="cls-6"/><polygon points="218.04 273.28 221 293 202.44 285.7 218.04 273.28" class="cls-81"/><line x1="186.94" x2="218.39" y1="250.23" y2="289.72" class="cls-6"/><polygon points="180.96 258.72 178 239 196.56 246.3 180.96 258.72" class="cls-81"/><circle cx="183.5" cy="301.69" r="14" class="cls-18" transform="translate(-166.01 351.95) rotate(-66.87)"/><circle cx="289.5" cy="206.69" r="14" class="cls-18" transform="translate(-14.28 391.75) rotate(-66.87)"/><rect width="50" height="26.12" x="157.26" y="329.01" class="cls-82"/><rect width="5.63" height=".45" x="185.29" y="331.6" class="cls-34" transform="translate(-143.72 519.94) rotate(-90)"/><rect width="50" height=".51" x="157.26" y="348.47" class="cls-34"/><rect width="50" height=".51" x="157.26" y="341.82" class="cls-34"/><rect width="50" height=".51" x="157.26" y="335.16" class="cls-34"/><rect width="6.15" height=".45" x="162.67" y="331.86" class="cls-34" transform="translate(-166.35 497.82) rotate(-90)"/><rect width="6.15" height=".45" x="194.65" y="331.86" class="cls-34" transform="translate(-134.36 529.81) rotate(-90)"/><rect width="6.32" height=".45" x="199.22" y="338.43" class="cls-34" transform="translate(-136.28 541.03) rotate(-90)"/><rect width="6.15" height=".45" x="199.3" y="351.83" class="cls-34" transform="translate(-149.68 554.44) rotate(-90)"/><rect width="6.15" height=".45" x="194.65" y="345.18" class="cls-34" transform="translate(-147.68 543.12) rotate(-90)"/><rect width="6.15" height=".45" x="162.67" y="345.18" class="cls-34" transform="translate(-179.66 511.14) rotate(-90)"/><rect width="6.15" height=".45" x="158.91" y="338.52" class="cls-34" transform="translate(-176.76 500.73) rotate(-90)"/><rect width="6.15" height=".45" x="158.91" y="351.83" class="cls-34" transform="translate(-190.07 514.04) rotate(-90)"/><rect width="6.15" height=".45" x="168.82" y="351.83" class="cls-34" transform="translate(-180.16 523.95) rotate(-90)"/><rect width="6.15" height=".45" x="179.03" y="351.83" class="cls-34" transform="translate(-169.95 534.16) rotate(-90)"/><rect width="6.15" height=".45" x="189.69" y="351.83" class="cls-34" transform="translate(-159.29 544.83) rotate(-90)"/><path d="M193.98,345.01c-2.08,5.64-6.61,9.34-11.5,9.47-5.85.15-10.36-4.86-11.9-9.47-4.13-12.36,11.12-27.62,12.69-26.61.64.41-1.23,3.35-.4,8.34.8,4.8,3.53,8.07,3.77,8.34,1.81,2.11,2.81,2.02,4.56,4.28,1.57,2.03,2.36,4.17,2.78,5.64Z" class="cls-14"/><path d="M177.08,347.28c1.46,4.09,4.59,6.85,8.03,7.08,4.42.3,7.85-3.69,9.01-7.17,3.13-9.36-8.42-20.91-9.61-20.14-.48.31.93,2.53.3,6.32-.61,3.64-2.68,6.11-2.85,6.32-1.42,1.66-2.35,1.55-3.45,3.24-.99,1.51-1.31,3.17-1.43,4.35Z" class="cls-11"/><path d="M188.19,346.77c.3,2.61-.49,5.11-2.12,6.46-2.32,1.91-5.52.85-7.21-.72-4.49-4.16-1.25-15.07-.35-15.08.37,0,.2,1.79,1.66,3.71,1.4,1.84,3.29,2.48,3.45,2.53,1.37.44,1.95-.05,2.91.56.96.61,1.43,1.73,1.67,2.53Z" class="cls-24"/><rect width="80" height="41.79" x="784.26" y="308.37" class="cls-82"/><rect width="9.01" height=".72" x="829.12" y="312.52" class="cls-34" transform="translate(520.75 1146.5) rotate(-90)"/><rect width="80" height=".82" x="784.26" y="339.51" class="cls-34"/><rect width="80" height=".82" x="784.26" y="328.86" class="cls-34"/><rect width="80" height=".82" x="784.26" y="318.21" class="cls-34"/><rect width="9.83" height=".72" x="792.91" y="312.93" class="cls-34" transform="translate(484.54 1111.12) rotate(-90)"/><rect width="9.83" height=".72" x="844.08" y="312.93" class="cls-34" transform="translate(535.71 1162.29) rotate(-90)"/><rect width="10.11" height=".72" x="851.39" y="323.45" class="cls-34" transform="translate(532.64 1180.25) rotate(-90)"/><rect width="9.83" height=".72" x="851.53" y="344.89" class="cls-34" transform="translate(511.2 1201.7) rotate(-90)"/><rect width="9.83" height=".72" x="844.08" y="334.23" class="cls-34" transform="translate(514.41 1183.6) rotate(-90)"/><rect width="9.83" height=".72" x="792.91" y="334.23" class="cls-34" transform="translate(463.23 1132.42) rotate(-90)"/><rect width="9.83" height=".72" x="786.91" y="323.58" class="cls-34" transform="translate(467.88 1115.77) rotate(-90)"/><rect width="9.83" height=".72" x="786.91" y="344.89" class="cls-34" transform="translate(446.58 1137.07) rotate(-90)"/><rect width="9.83" height=".72" x="802.76" y="344.89" class="cls-34" transform="translate(462.43 1152.93) rotate(-90)"/><rect width="9.83" height=".72" x="819.1" y="344.89" class="cls-34" transform="translate(478.77 1169.26) rotate(-90)"/><rect width="9.83" height=".72" x="836.16" y="344.89" class="cls-34" transform="translate(495.82 1186.32) rotate(-90)"/><path d="M843.01,333.97c-3.32,9.02-10.58,14.95-18.4,15.15-9.36.24-16.57-7.77-19.04-15.15-6.61-19.77,17.79-44.19,20.31-42.57,1.02.66-1.97,5.36-.63,13.35,1.29,7.68,5.65,12.91,6.03,13.35,2.89,3.37,4.5,3.23,7.3,6.85,2.51,3.25,3.77,6.67,4.44,9.02Z" class="cls-14"/><path d="M815.97,337.6c2.33,6.54,7.35,10.97,12.85,11.34,7.07.47,12.55-5.91,14.41-11.47,5.01-14.97-13.47-33.46-15.38-32.23-.77.5,1.49,4.06.48,10.11-.97,5.82-4.28,9.77-4.56,10.11-2.27,2.65-3.76,2.49-5.53,5.19-1.59,2.42-2.1,5.07-2.28,6.97Z" class="cls-11"/><path d="M833.75,336.78c.47,4.18-.78,8.18-3.4,10.34-3.7,3.06-8.83,1.36-11.53-1.15-7.18-6.66-2-24.11-.57-24.12.58,0,.32,2.87,2.65,5.94,2.24,2.95,5.27,3.97,5.53,4.05,2.19.7,3.12-.08,4.65.89,1.53.98,2.28,2.76,2.67,4.05Z" class="cls-24"/><ellipse cx="779.5" cy="299.69" class="cls-18" rx="13.99" ry="14.01" transform="translate(16.61 639.43) rotate(-45.03)"/></g><g id="Text"><text class="cls-28" transform="translate(505.1 96.83)"><tspan class="cls-7"><tspan x="0" y="0" class="cls-53">L</tspan><tspan x="8.68" y="0">o</tspan><tspan x="18.85" y="0" class="cls-77">c</tspan><tspan x="27.75" y="0" class="cls-47">al subnet </tspan></tspan><tspan class="cls-7"><tspan x="23.24" y="19">sha</tspan><tspan x="53.19" y="19" class="cls-63">r</tspan><tspan x="59.83" y="19">ed </tspan></tspan><tspan class="cls-7"><tspan x="14.33" y="38" class="cls-51">o</tspan><tspan x="24.04" y="38" class="cls-77">v</tspan><tspan x="32.87" y="38">er VPN:</tspan></tspan><tspan class="cls-37"><tspan x="49.47" y="57" xml:space="preserve"> </tspan></tspan><tspan class="cls-37"><tspan x="-8.94" y="76">Clu</tspan><tspan x="18.09" y="76" class="cls-74">s</tspan><tspan x="26.97" y="76" class="cls-68">t</tspan><tspan x="33.39" y="76">er pri</tspan><tspan x="76.85" y="76" class="cls-70">v</tspan><tspan x="85.78" y="76">a</tspan><tspan x="95.66" y="76" class="cls-65">t</tspan><tspan x="102.08" y="76">e </tspan></tspan><tspan class="cls-37"><tspan x="17.57" y="95">net</tspan><tspan x="44.72" y="95" class="cls-63">w</tspan><tspan x="58.84" y="95">ork </tspan></tspan><tspan class="cls-37"><tspan x="9.44" y="114">10.0.0.0/8</tspan></tspan></text><text class="cls-35" transform="translate(182.55 28.79) scale(.99 1)"><tspan x="0" y="0">IBM Cloud</tspan></text><text class="cls-41" transform="translate(199.76 71.19)"><tspan x="0" y="0">Clu</tspan><tspan x="32.14" y="0" class="cls-76">s</tspan><tspan x="42.7" y="0" class="cls-67">t</tspan><tspan x="50.34" y="0">er</tspan></text><text class="cls-40" transform="translate(869.43 29.79) scale(.99 1)"><tspan x="0" y="0">On-p</tspan><tspan x="51.86" y="0" class="cls-62">r</tspan><tspan x="60.19" y="0">emises </tspan><tspan x="24.46" y="27.6">net</tspan><tspan x="58.22" y="27.6" class="cls-62">w</tspan><tspan x="75.77" y="27.6">ork</tspan></text><text class="cls-36" transform="translate(959.41 313.79)"><tspan x="0" y="0" class="cls-54">R</tspan><tspan x="12.98" y="0">ou</tspan><tspan x="36" y="0" class="cls-66">t</tspan><tspan x="43.4" y="0">er</tspan></text><text class="cls-38" transform="translate(839.58 84.71)"><tspan x="0" y="0">Se</tspan><tspan x="22.6" y="0" class="cls-86">r</tspan><tspan x="30.14" y="0" class="cls-73">v</tspan><tspan x="39.82" y="0">ers</tspan></text><text class="cls-38" transform="translate(950.45 84.71)"><tspan x="0" y="0">Mainf</tspan><tspan x="49.76" y="0" class="cls-66">r</tspan><tspan x="57.02" y="0">ame</tspan></text><text class="cls-43" transform="translate(1030.75 289.01) rotate(-.97) scale(.96 1) skewX(.07)"><tspan x="0" y="0">5</tspan></text><text class="cls-38" transform="translate(592.93 349.42)"><tspan x="0" y="0">In</tspan><tspan x="19.36" y="0" class="cls-66">t</tspan><tspan x="26.3" y="0">ernet</tspan></text><text class="cls-21" transform="translate(285.77 125.94)"><tspan x="0" y="0" class="cls-55">W</tspan><tspan x="15.77" y="0">or</tspan><tspan x="32.45" y="0" class="cls-56">k</tspan><tspan x="41.63" y="0">er Node</tspan></text><text class="cls-31" transform="translate(318.12 159.76)"><tspan x="0" y="0" class="cls-52">P</tspan><tspan x="11.13" y="0">od</tspan></text><text class="cls-31" transform="translate(295.03 192.97)"><tspan x="0" y="0">Container</tspan></text><text class="cls-30" transform="translate(299.9 227.06)"><tspan x="0" y="0" class="cls-79">m</tspan><tspan x="16.44" y="0" class="cls-57">y</tspan><tspan x="25.65" y="0">app2</tspan></text><text class="cls-13" transform="translate(534.51 293.33)"><tspan x="0" y="0">Enc</tspan><tspan x="32.68" y="0" class="cls-87">r</tspan><tspan x="40.49" y="0">y</tspan><tspan x="50.63" y="0" class="cls-59">p</tspan><tspan x="62.07" y="0" class="cls-69">t</tspan><tspan x="69.27" y="0">ed VPN tunnel</tspan></text><text class="cls-44" transform="translate(516.13 279.11) rotate(-1.04) scale(.96 1) skewX(-.09)"><tspan x="0" y="0">3</tspan></text><text class="cls-9" transform="translate(304.63 302.71)"><tspan x="0" y="0" class="cls-71">P</tspan><tspan x="11.56" y="0">ri</tspan><tspan x="24.12" y="0" class="cls-78">v</tspan><tspan x="33.66" y="0">a</tspan><tspan x="45.32" y="0" class="cls-61">t</tspan><tspan x="51.62" y="0">e V</tspan><tspan x="78.42" y="0" class="cls-83">L</tspan><tspan x="88.6" y="0">AN</tspan></text><text class="cls-21" transform="translate(93.92 125.74) rotate(.18)"><tspan x="0" y="0" class="cls-55">W</tspan><tspan x="15.77" y="0">or</tspan><tspan x="32.45" y="0" class="cls-56">k</tspan><tspan x="41.63" y="0">er Node</tspan></text><text class="cls-31" transform="translate(126.17 159.67) rotate(.18)"><tspan x="0" y="0" class="cls-52">P</tspan><tspan x="11.13" y="0">od</tspan></text><text class="cls-31" transform="translate(102.96 192.8) rotate(.18)"><tspan x="0" y="0">Container</tspan></text><text class="cls-30" transform="translate(107.73 226.91) rotate(.18)"><tspan x="0" y="0" class="cls-79">m</tspan><tspan x="16.44" y="0" class="cls-57">y</tspan><tspan x="25.65" y="0">app1</tspan></text><text class="cls-12" transform="translate(215.55 334.27) rotate(.18)"><tspan x="0" y="0">VRA</tspan></text><text class="cls-42" transform="translate(178.61 307.66) scale(.96 1)"><tspan x="0" y="0">2</tspan></text><text class="cls-42" transform="translate(284.61 212.66) scale(.96 1)"><tspan x="0" y="0">1</tspan></text><text transform="translate(658.45 88.83)"><tspan class="cls-8"><tspan x="0" y="0" class="cls-58">R</tspan><tspan x="10.71" y="0" class="cls-46">em</tspan><tspan x="35.17" y="0" class="cls-60">ot</tspan><tspan x="50.65" y="0" class="cls-46">e subnets </tspan></tspan><tspan class="cls-8"><tspan x="-2.79" y="19">sha</tspan><tspan x="26.35" y="19" class="cls-60">r</tspan><tspan x="32.81" y="19" class="cls-46">ed </tspan><tspan x="56.75" y="19" class="cls-50">o</tspan><tspan x="66.2" y="19" class="cls-75">v</tspan><tspan x="74.79" y="19" class="cls-32">er VPN:</tspan></tspan><tspan class="cls-22"><tspan x="32.75" y="57">Se</tspan><tspan x="53.09" y="57" class="cls-85">r</tspan><tspan x="59.88" y="57" class="cls-72">v</tspan><tspan x="68.59" y="57">ers </tspan></tspan><tspan class="cls-22"><tspan x=".25" y="76">192.xx.xx.xx/24</tspan></tspan><tspan class="cls-22"><tspan x="61.17" y="95" xml:space="preserve"> </tspan></tspan><tspan class="cls-39"><tspan x="24.56" y="114">Mainf</tspan><tspan x="66.86" y="114" class="cls-64">r</tspan><tspan x="73.03" y="114">ame</tspan></tspan><tspan class="cls-37"><tspan x="-1.54" y="133" class="cls-20">192.</tspan><tspan x="35.75" y="133" class="cls-29">xx.xx.xx</tspan><tspan x="103.89" y="133" class="cls-20">/24</tspan></tspan></text><text class="cls-43" transform="translate(774.74 305.01) rotate(-.97) scale(.96 1) skewX(.07)"><tspan x="0" y="0">4</tspan></text></g></svg>