<svg xmlns="http://www.w3.org/2000/svg" viewBox="0 0 621 435.79"><defs><style>.cls-1{fill:none;stroke-width:3px}.cls-1,.cls-2,.cls-3{stroke-miterlimit:10}.cls-1,.cls-3{stroke:#4278bd}.cls-4{fill:#848b8f}.cls-2{stroke:#00b39f;stroke-dasharray:8;stroke-width:2px}.cls-2,.cls-3,.cls-5,.cls-6{fill:#fff}.cls-5{font-family:IBMPlexSans-Bold,&apos;IBM Plex Sans&apos;;font-weight:700;font-size:20px}.cls-6,.cls-7{font-size:20px;font-family:IBMPlexSans,&apos;IBM Plex Sans&apos;}.cls-8{letter-spacing:-.02em}.cls-9{letter-spacing:0}.cls-10{fill:#4278bd}.cls-11{fill:#3eaa82}</style></defs><g id="Layer_1"><rect width="188.52" height="150" x="7.78" y="16" class="cls-2" rx="12" ry="12"/><rect width="188.52" height="150" x="219.63" y="16" class="cls-2" rx="12" ry="12"/><rect width="188.52" height="150" x="431.48" y="16" class="cls-2" rx="12" ry="12"/><rect width="189" height="150" x="7.5" y="279.5" class="cls-3" rx="12" ry="12"/><rect width="189" height="150" x="219.5" y="279.5" class="cls-3" rx="12" ry="12"/><rect width="189" height="150" x="431.5" y="279.5" class="cls-3" rx="12" ry="12"/><rect width="145" height="42.73" x="29" y="201.04" class="cls-10" rx="12" ry="12"/><rect width="145" height="42.73" x="241" y="201.04" class="cls-10" rx="12" ry="12"/><rect width="145" height="42.73" x="453" y="201.04" class="cls-10" rx="12" ry="12"/><rect width="54" height="53.96" x="14" y="332.83" class="cls-10" rx="12" ry="12"/><rect width="54" height="53.96" x="74.5" y="332.83" class="cls-10" rx="12" ry="12"/><rect width="54" height="53.96" x="135" y="332.83" class="cls-10" rx="12" ry="12"/><rect width="54" height="53.96" x="228" y="332.83" class="cls-10" rx="12" ry="12"/><rect width="54" height="53.96" x="288.5" y="332.83" class="cls-10" rx="12" ry="12"/><rect width="54" height="53.96" x="499.5" y="332.83" class="cls-10" rx="12" ry="12"/><rect width="54" height="53.96" x="560" y="332.83" class="cls-4" rx="12" ry="12"/><rect width="54" height="53.96" x="15" y="63.83" class="cls-4" rx="12" ry="12"/><rect width="54" height="53.96" x="75.5" y="63.83" class="cls-4" rx="12" ry="12"/><rect width="54" height="53.96" x="136" y="63.83" class="cls-4" rx="12" ry="12"/><rect width="54" height="53.96" x="226" y="63.83" class="cls-4" rx="12" ry="12"/><rect width="54" height="53.96" x="286.5" y="63.83" class="cls-4" rx="12" ry="12"/><rect width="54" height="53.96" x="347" y="63.83" class="cls-10" rx="12" ry="12"/><rect width="54" height="53.96" x="439" y="63.83" class="cls-10" rx="12" ry="12"/><rect width="54" height="53.96" x="499.5" y="63.83" class="cls-4" rx="12" ry="12"/><rect width="54" height="53.96" x="560" y="63.83" class="cls-10" rx="12" ry="12"/><line x1="41" x2="41" y1="118" y2="311.47" class="cls-1"/><polygon points="26.04 307.09 41 333 55.96 307.09 26.04 307.09" class="cls-10"/><line x1="101.5" x2="101.5" y1="118" y2="311.47" class="cls-1"/><polygon points="86.54 307.09 101.5 333 116.46 307.09 86.54 307.09" class="cls-10"/><line x1="161.5" x2="161.5" y1="118" y2="311.47" class="cls-1"/><polygon points="146.54 307.09 161.5 333 176.46 307.09 146.54 307.09" class="cls-10"/><line x1="254" x2="254" y1="117" y2="310.47" class="cls-1"/><polygon points="239.04 306.09 254 332 268.96 306.09 239.04 306.09" class="cls-10"/><line x1="314.5" x2="314.5" y1="117" y2="310.47" class="cls-1"/><polygon points="299.54 306.09 314.5 332 329.46 306.09 299.54 306.09" class="cls-10"/><line x1="527.5" x2="527.5" y1="117" y2="310.47" class="cls-1"/><polygon points="512.54 306.09 527.5 332 542.46 306.09 512.54 306.09" class="cls-10"/><line x1="587.5" x2="587.5" y1="333" y2="139.53" class="cls-1"/><polygon points="602.46 143.91 587.5 118 572.54 143.91 602.46 143.91" class="cls-10"/><circle cx="20" cy="23" r="20" class="cls-11"/><circle cx="229" cy="23" r="20" class="cls-11"/><circle cx="440" cy="20" r="20" class="cls-11"/></g><g id="Text"><text class="cls-7" transform="translate(42 40.31)"><tspan x="0" y="0" class="cls-8">P</tspan><tspan x="11.72" y="0">ending pods</tspan></text><text class="cls-7" transform="translate(255 40.31)"><tspan x="0" y="0" class="cls-8">P</tspan><tspan x="11.72" y="0">ending pods</tspan></text><text class="cls-7" transform="translate(472 40.31)"><tspan x="0" y="0" class="cls-8">P</tspan><tspan x="11.72" y="0">ending pods</tspan></text><text class="cls-7" transform="translate(21 422.31)"><tspan x="0" y="0" class="cls-8">A</tspan><tspan x="12.42" y="0" class="cls-9">v</tspan><tspan x="22.08" y="0">ailable node</tspan></text><text class="cls-7" transform="translate(230 422.31)"><tspan x="0" y="0" class="cls-8">A</tspan><tspan x="12.42" y="0" class="cls-9">v</tspan><tspan x="22.08" y="0">ailable node</tspan></text><text class="cls-7" transform="translate(444 422.31)"><tspan x="0" y="0" class="cls-8">A</tspan><tspan x="12.42" y="0" class="cls-9">v</tspan><tspan x="22.08" y="0">ailable node</tspan></text><text class="cls-6" transform="translate(54 227.31)"><tspan x="0" y="0">Scheduler</tspan></text><text class="cls-6" transform="translate(267 229.31)"><tspan x="0" y="0">Scheduler</tspan></text><text class="cls-6" transform="translate(481 227.31)"><tspan x="0" y="0">Scheduler</tspan></text><text class="cls-6" transform="translate(54 227.31)"><tspan x="0" y="0">Scheduler</tspan></text><text class="cls-5" transform="translate(32 365.31)"><tspan x="0" y="0">H</tspan></text><text class="cls-5" transform="translate(92 364.31)"><tspan x="0" y="0">M</tspan></text><text class="cls-5" transform="translate(156 364.31)"><tspan x="0" y="0">L</tspan></text><text class="cls-5" transform="translate(32 96.31)"><tspan x="0" y="0">H</tspan></text><text class="cls-5" transform="translate(92 95.31)"><tspan x="0" y="0">M</tspan></text><text class="cls-5" transform="translate(156 95.31)"><tspan x="0" y="0">L</tspan></text><text class="cls-5" transform="translate(244 96.31)"><tspan x="0" y="0">H</tspan></text><text class="cls-5" transform="translate(304 95.31)"><tspan x="0" y="0">M</tspan></text><text class="cls-5" transform="translate(368 95.31)"><tspan x="0" y="0">L</tspan></text><text class="cls-5" transform="translate(456 96.31)"><tspan x="0" y="0">H</tspan></text><text class="cls-5" transform="translate(516 95.31)"><tspan x="0" y="0">M</tspan></text><text class="cls-5" transform="translate(580 95.31)"><tspan x="0" y="0">L</tspan></text><text class="cls-5" transform="translate(246 365.31)"><tspan x="0" y="0">H</tspan></text><text class="cls-5" transform="translate(306 364.31)"><tspan x="0" y="0">M</tspan></text><text class="cls-5" transform="translate(517 364.31)"><tspan x="0" y="0">M</tspan></text><text class="cls-5" transform="translate(581 364.31)"><tspan x="0" y="0">L</tspan></text><text class="cls-5" transform="translate(13 27.31)"><tspan x="0" y="0">1</tspan></text><text class="cls-5" transform="translate(222.5 27.31)"><tspan x="0" y="0">2</tspan></text><text class="cls-5" transform="translate(432 27.31)"><tspan x="0" y="0">3</tspan></text></g></svg>